<?xml version="1.0" encoding="UTF-8" standalone="no"?>
<svg width="284px" height="66px" viewBox="0 0 284 66" version="1.1" xmlns="http://www.w3.org/2000/svg" xmlns:xlink="http://www.w3.org/1999/xlink" xmlns:sketch="http://www.bohemiancoding.com/sketch/ns">
    <!-- Generator: Sketch 3.3.3 (12081) - http://www.bohemiancoding.com/sketch -->
    <title>Group</title>
    <desc>Created with Sketch.</desc>
    <defs/>
    <g id="Page-1" stroke="none" stroke-width="1" fill="none" fill-rule="evenodd" sketch:type="MSPage">
        <g id="Group" sketch:type="MSLayerGroup">
            <path d="M93.266,19.169 C91.663,19.169 90.124,19.478 88.693,20.089 C87.259,20.701 85.989,21.553 84.92,22.622 C83.849,23.693 82.997,24.963 82.386,26.395 C81.776,27.825 81.467,29.364 81.467,30.969 C81.467,32.573 81.776,34.112 82.386,35.543 C82.998,36.977 83.85,38.246 84.92,39.315 C85.989,40.385 87.258,41.237 88.692,41.849 C90.122,42.459 91.66,42.769 93.266,42.769 C94.872,42.769 96.411,42.459 97.84,41.849 C99.273,41.238 100.542,40.387 101.613,39.315 C102.682,38.246 103.534,36.977 104.147,35.543 C104.757,34.11 105.067,32.571 105.067,30.969 C105.067,29.366 104.757,27.827 104.147,26.395 C103.535,24.963 102.682,23.693 101.613,22.622 C100.542,21.553 99.273,20.7 97.84,20.089 C96.409,19.478 94.87,19.169 93.266,19.169 L93.266,19.169 Z M76.266,58.408 L76.266,30.969 C76.266,28.631 76.714,26.404 77.597,24.352 C78.478,22.303 79.704,20.483 81.243,18.945 C82.781,17.407 84.599,16.181 86.649,15.299 C88.702,14.416 90.928,13.969 93.266,13.969 C95.603,13.969 97.829,14.416 99.884,15.299 C101.933,16.182 103.752,17.408 105.29,18.945 C106.827,20.482 108.054,22.302 108.936,24.352 C109.819,26.406 110.266,28.632 110.266,30.969 C110.266,33.307 109.819,35.533 108.936,37.586 C108.054,39.636 106.828,41.455 105.29,42.992 C103.752,44.531 101.933,45.758 99.884,46.639 C97.829,47.521 95.603,47.969 93.266,47.969 C90.919,47.969 88.481,47.335 86.02,46.084 C84.125,45.121 82.599,43.965 81.467,42.635 L81.467,58.408 L76.266,58.408 L76.266,58.408 Z" id="Fill-3" fill="#FFFFFF" sketch:type="MSShapeGroup"/>
            <path d="M129.046,19.109 C127.443,19.109 125.904,19.418 124.472,20.029 C123.038,20.641 121.769,21.493 120.699,22.562 C119.629,23.633 118.777,24.902 118.166,26.335 C117.555,27.766 117.246,29.305 117.246,30.908 C117.246,32.514 117.555,34.053 118.166,35.482 C118.777,36.917 119.63,38.186 120.699,39.256 C121.769,40.325 123.038,41.178 124.472,41.789 C125.902,42.399 127.441,42.709 129.046,42.709 C130.651,42.709 132.19,42.399 133.62,41.789 C135.052,41.178 136.322,40.326 137.392,39.256 C138.463,38.186 139.314,36.926 139.927,35.51 C140.459,34.219 140.769,32.84 140.847,31.422 L140.845,30.908 C140.845,29.305 140.537,27.766 139.926,26.335 C139.314,24.902 138.463,23.633 137.392,22.562 C136.322,21.492 135.052,20.641 133.62,20.029 C132.189,19.418 130.65,19.109 129.046,19.109 L129.046,19.109 Z M129.046,47.908 C126.708,47.908 124.482,47.461 122.428,46.578 C120.382,45.699 118.563,44.473 117.023,42.932 C115.483,41.393 114.256,39.573 113.377,37.525 C112.494,35.475 112.046,33.248 112.046,30.908 C112.046,28.57 112.494,26.344 113.377,24.291 C114.257,22.243 115.484,20.424 117.023,18.885 C118.56,17.348 120.379,16.121 122.428,15.239 C124.482,14.356 126.708,13.908 129.046,13.908 C131.383,13.908 133.609,14.356 135.664,15.239 C137.715,16.123 139.533,17.35 141.07,18.885 C142.605,20.421 143.832,22.24 144.715,24.291 C145.597,26.346 146.045,28.572 146.045,30.908 L146.045,46.469 L140.845,46.469 L140.845,43.152 C139.367,44.583 137.625,45.734 135.664,46.578 C133.609,47.461 131.383,47.908 129.046,47.908 L129.046,47.908 Z" id="Fill-4" fill="#FFFFFF" sketch:type="MSShapeGroup"/>
            <path d="M150.724,46.469 L150.724,20.669 L147.666,20.669 L147.666,15.469 L150.724,15.469 L150.724,3.469 L155.926,3.469 L155.926,15.469 L163.785,15.469 L163.785,20.669 L155.926,20.669 L155.926,46.469 L150.724,46.469" id="Fill-5" fill="#FFFFFF" sketch:type="MSShapeGroup"/>
            <path d="M166.385,46.469 L166.324,15.469 L171.465,15.469 L171.465,20.165 C172.978,18.697 174.74,17.525 176.707,16.68 C178.761,15.797 180.988,15.349 183.324,15.349 L183.824,15.349 L183.824,20.549 L183.324,20.549 C181.72,20.549 180.181,20.858 178.75,21.469 C177.316,22.081 176.047,22.934 174.978,24.002 C173.906,25.073 173.054,26.342 172.443,27.775 C171.834,29.206 171.523,30.745 171.523,32.349 L171.523,46.469 L166.385,46.469" id="Fill-6" fill="#FFFFFF" sketch:type="MSShapeGroup"/>
            <path d="M188.285,29.87 C188.416,28.37 188.836,26.9 189.546,25.51 C190.245,24.12 191.225,22.89 192.456,21.86 C193.685,20.83 195.065,20.08 196.555,19.63 C198.046,19.17 199.565,19.01 201.055,19.14 C202.055,19.25 203.035,19.48 203.975,19.82 L188.395,32.89 C188.235,31.9 188.195,30.89 188.285,29.87 L188.285,29.87 Z M216.956,29.27 L211.706,29.27 C211.845,30.17 211.876,31.06 211.805,31.93 C211.666,33.44 211.245,34.91 210.535,36.3 C209.836,37.68 208.855,38.91 207.626,39.94 C206.395,40.97 205.015,41.72 203.535,42.18 C202.035,42.63 200.525,42.79 199.015,42.66 C197.506,42.53 196.035,42.1 194.645,41.4 C193.265,40.69 192.035,39.72 191.006,38.49 C190.845,38.3 190.685,38.1 190.535,37.89 L212.555,19.41 L212.185,19.02 C210.905,17.69 209.416,16.59 207.775,15.78 C205.796,14.76 203.695,14.15 201.525,13.96 C199.355,13.77 197.176,14 195.046,14.64 C192.895,15.29 190.905,16.38 189.115,17.88 C187.325,19.38 185.905,21.15 184.905,23.15 C183.895,25.14 183.296,27.25 183.105,29.42 C182.916,31.59 183.145,33.77 183.785,35.9 C184.426,38.04 185.515,40.04 187.015,41.83 C188.525,43.62 190.296,45.04 192.296,46.04 C194.285,47.05 196.395,47.65 198.565,47.84 C200.735,48.03 202.916,47.8 205.046,47.16 C207.185,46.51 209.176,45.43 210.975,43.92 C212.756,42.42 214.176,40.65 215.185,38.65 C216.185,36.66 216.796,34.55 216.985,32.38 C217.075,31.34 217.065,30.31 216.956,29.27 L216.956,29.27 Z" id="Fill-7" fill="#FFFFFF" sketch:type="MSShapeGroup"/>
            <path d="M235.924,19.109 C234.32,19.109 232.781,19.418 231.349,20.029 C229.916,20.641 228.646,21.493 227.578,22.562 C226.506,23.634 225.654,24.902 225.045,26.334 C224.433,27.764 224.125,29.303 224.125,30.908 C224.125,32.515 224.433,34.053 225.045,35.482 C225.654,36.916 226.508,38.186 227.578,39.256 C228.646,40.325 229.916,41.178 231.349,41.789 C232.779,42.399 234.318,42.709 235.924,42.709 C237.529,42.709 239.068,42.399 240.498,41.789 C241.929,41.178 243.199,40.326 244.271,39.256 C245.34,38.186 246.191,36.918 246.804,35.482 C247.414,34.051 247.724,32.512 247.724,30.908 C247.724,29.305 247.414,27.766 246.804,26.335 C246.191,24.901 245.34,23.633 244.271,22.562 C243.199,21.492 241.929,20.641 240.498,20.029 C239.066,19.418 237.527,19.109 235.924,19.109 L235.924,19.109 Z M235.924,47.908 C233.586,47.908 231.359,47.461 229.306,46.578 C227.26,45.699 225.441,44.473 223.9,42.932 C222.361,41.393 221.135,39.573 220.256,37.525 C219.371,35.475 218.924,33.248 218.924,30.908 C218.924,28.57 219.371,26.344 220.256,24.291 C221.135,22.243 222.361,20.424 223.9,18.885 C225.437,17.348 227.258,16.121 229.306,15.239 C231.359,14.356 233.586,13.908 235.924,13.908 C238.26,13.908 240.486,14.356 242.541,15.239 C244.592,16.122 246.412,17.349 247.947,18.885 C249.484,20.422 250.711,22.241 251.594,24.291 C252.476,26.347 252.924,28.573 252.924,30.908 C252.924,33.245 252.476,35.472 251.594,37.525 C250.713,39.575 249.486,41.395 247.947,42.932 C246.408,44.471 244.59,45.698 242.541,46.578 C240.486,47.461 238.26,47.908 235.924,47.908 L235.924,47.908 Z" id="Fill-8" fill="#FFFFFF" sketch:type="MSShapeGroup"/>
            <path d="M278.564,46.469 L278.504,27.971 C278.504,26.764 278.275,25.619 277.824,24.565 C277.371,23.509 276.74,22.572 275.949,21.782 C275.158,20.992 274.222,20.361 273.166,19.908 C272.113,19.457 270.988,19.228 269.824,19.228 C268.664,19.228 267.543,19.476 266.494,19.963 C265.433,20.455 264.494,21.116 263.701,21.928 C262.906,22.742 262.263,23.693 261.791,24.753 C261.32,25.801 261.084,26.883 261.084,27.969 L261.144,46.469 L255.883,46.469 L255.883,15.469 L261.084,15.469 L261.084,17.295 C261.33,17.043 261.599,16.799 261.892,16.567 C262.597,16.007 263.388,15.521 264.242,15.125 C265.092,14.732 266.006,14.428 266.957,14.221 C267.91,14.014 268.875,13.908 269.824,13.908 C271.724,13.908 273.549,14.286 275.244,15.031 C276.933,15.772 278.427,16.787 279.687,18.045 C280.947,19.305 281.961,20.811 282.703,22.52 C283.447,24.236 283.824,26.069 283.824,27.969 L283.885,46.469 L278.564,46.469" id="Fill-9" fill="#FFFFFF" sketch:type="MSShapeGroup"/>
            <path d="M32.555,0.56 C14.645,0.56 0.115,15.08 0.115,33 L0.115,65.44 L7.805,65.44 L7.805,33 C7.805,19.33 18.895,8.25 32.555,8.25 C46.225,8.25 57.305,19.33 57.305,33 C57.305,46.66 46.225,57.75 32.555,57.75 C30.121,57.75 27.781,57.378 25.555,56.716 L25.555,46.083 C27.645,47.206 30.028,47.85 32.555,47.85 C40.745,47.85 47.406,41.19 47.406,33 C47.406,24.81 40.745,18.15 32.555,18.15 C24.375,18.15 17.705,24.81 17.705,33 L17.705,61.83 L17.676,61.83 L17.676,65.44 L32.555,65.44 C50.475,65.44 64.995,50.91 64.995,33 C64.995,15.08 50.475,0.56 32.555,0.56" id="Fill-10" fill="#E6461A" sketch:type="MSShapeGroup"/>
        </g>
    </g>
</svg>